<svg xmlns="http://www.w3.org/2000/svg" xmlns:xlink="http://www.w3.org/1999/xlink" width="500" zoomAndPan="magnify" viewBox="0 0 375 374.999991" height="500" preserveAspectRatio="xMidYMid meet" version="1.0"><defs><clipPath id="132a77d761"><path d="M 17.960938 88.242188 L 356.960938 88.242188 L 356.960938 286.992188 L 17.960938 286.992188 Z M 17.960938 88.242188 " clip-rule="nonzero"/></clipPath></defs><rect x="-37.5" width="450" fill="#ffffff" y="-37.499999" height="449.999989" fill-opacity="1"/><rect x="-37.5" width="450" fill="#ffffff" y="-37.499999" height="449.999989" fill-opacity="1"/><rect x="-37.5" width="450" fill="#ffffff" y="-37.499999" height="449.999989" fill-opacity="1"/><g clip-path="url(#132a77d761)"><path fill="#000000" d="M 352.125 88.402344 L 22.800781 88.402344 C 20.132812 88.402344 17.960938 90.574219 17.960938 93.25 L 17.960938 121.425781 C 17.960938 124.101562 20.132812 126.273438 22.800781 126.273438 L 29.496094 126.273438 L 29.496094 234.6875 C 29.496094 237.363281 31.667969 239.535156 34.335938 239.535156 L 51.210938 239.535156 C 51.683594 244.558594 52.695312 249.617188 54.246094 254.710938 L 53.160156 277.566406 C 53.03125 280.230469 55.089844 282.496094 57.753906 282.625 L 57.769531 282.625 C 93.753906 285.953125 151.597656 286.808594 203.058594 285.503906 C 252.167969 284.253906 295.722656 280.996094 309.503906 275.996094 C 311.453125 275.292969 312.664062 273.457031 312.6875 271.5 C 313.019531 263.375 312.324219 257.273438 312.324219 257.257812 C 312.273438 256.824219 312.164062 256.40625 312.011719 256.015625 C 310.300781 250.585938 307.699219 245.789062 304.1875 241.648438 C 303.570312 240.917969 302.925781 240.222656 302.257812 239.535156 L 340.570312 239.535156 C 343.242188 239.535156 345.410156 237.363281 345.410156 234.6875 L 345.410156 126.273438 L 352.105469 126.273438 C 354.777344 126.273438 356.945312 124.101562 356.945312 121.425781 L 356.945312 93.25 C 356.960938 90.574219 354.792969 88.402344 352.125 88.402344 Z M 286.257812 239.585938 C 290.527344 241.851562 294.0625 244.621094 296.832031 247.894531 C 298.542969 249.914062 299.976562 252.140625 301.128906 254.558594 C 291.347656 256.382812 269.96875 257.496094 243.769531 257.96875 C 245.855469 252.9375 251.804688 252.351562 257.90625 251.757812 C 268.210938 250.746094 278.78125 249.710938 282.203125 237.703125 C 283.59375 238.277344 284.949219 238.898438 286.257812 239.585938 Z M 257 242.132812 C 245.972656 243.210938 235.246094 244.253906 233.566406 258.121094 C 224.210938 258.234375 214.394531 258.273438 204.386719 258.242188 L 222.777344 218.15625 C 229.195312 220.855469 235.507812 223.382812 241.644531 225.667969 C 249.414062 228.554688 256.667969 230.359375 263.492188 232.058594 C 266.722656 232.863281 269.855469 233.644531 272.867188 234.503906 C 270.578125 240.808594 263.703125 241.480469 257 242.132812 Z M 193.792969 258.191406 C 190.667969 258.164062 187.523438 258.140625 184.386719 258.097656 L 206.066406 210.839844 C 208.683594 212.027344 211.304688 213.199219 213.914062 214.34375 Z M 173.835938 257.953125 C 170.691406 257.902344 167.5625 257.851562 164.453125 257.792969 L 189.539062 203.117188 C 191.464844 204.042969 193.386719 204.957031 195.3125 205.867188 C 195.972656 206.179688 196.640625 206.484375 197.300781 206.800781 Z M 153.9375 257.585938 C 150.78125 257.519531 147.664062 257.453125 144.585938 257.375 L 173.164062 195.085938 C 175.726562 196.367188 178.292969 197.640625 180.871094 198.90625 Z M 134.097656 257.085938 C 117.382812 256.613281 102.246094 256.015625 90.3125 255.332031 C 90.117188 245.5 87.941406 236.691406 83.78125 228.910156 C 79.636719 221.167969 73.574219 214.515625 65.59375 208.945312 C 67.921875 203.335938 71.058594 197.769531 75.015625 192.226562 C 79.320312 198.761719 84.957031 203.574219 91.296875 206.671875 C 97.035156 209.480469 103.375 210.867188 109.832031 210.867188 C 116.230469 210.867188 122.730469 209.492188 128.851562 206.773438 C 136.679688 203.304688 143.960938 197.640625 149.730469 189.867188 C 149.875 189.699219 150.003906 189.519531 150.128906 189.324219 C 151.171875 187.890625 152.164062 186.386719 153.105469 184.816406 C 156.867188 186.777344 160.691406 188.746094 164.539062 190.707031 Z M 63.558594 252.171875 C 60.050781 240.84375 59.667969 229.648438 62.40625 218.589844 C 67.972656 222.890625 72.269531 227.847656 75.269531 233.457031 C 78.59375 239.664062 80.382812 246.75 80.644531 254.703125 C 70.550781 253.9375 64.277344 253.089844 63.558594 252.171875 Z M 27.640625 98.09375 L 138.078125 98.09375 L 138.078125 116.582031 L 27.640625 116.582031 Z M 103.367188 126.273438 L 103.367188 135.371094 C 103.367188 136.253906 103.007812 137.050781 102.449219 137.613281 L 102.433594 137.613281 C 101.855469 138.1875 101.058594 138.554688 100.1875 138.554688 L 80.210938 138.554688 C 79.339844 138.554688 78.550781 138.1875 77.964844 137.613281 L 77.789062 137.441406 C 77.3125 136.890625 77.023438 136.160156 77.023438 135.363281 L 77.023438 126.273438 Z M 39.183594 126.273438 L 67.347656 126.273438 L 67.347656 135.371094 C 67.347656 138.730469 68.660156 141.8125 70.804688 144.121094 L 71.125 144.476562 C 73.457031 146.8125 76.675781 148.253906 80.210938 148.253906 L 100.179688 148.253906 C 103.722656 148.253906 106.941406 146.804688 109.253906 144.460938 C 111.585938 142.117188 113.042969 138.902344 113.042969 135.371094 L 113.042969 126.273438 L 141.207031 126.273438 L 141.207031 185.113281 C 136.597656 190.972656 130.96875 195.25 124.960938 197.914062 C 120.027344 200.09375 114.867188 201.207031 109.839844 201.207031 C 104.875 201.207031 99.984375 200.136719 95.542969 197.964844 C 89.128906 194.824219 83.636719 189.351562 80.136719 181.457031 C 79.839844 180.785156 79.390625 180.167969 78.78125 179.675781 C 76.71875 177.984375 73.6875 178.28125 71.992188 180.335938 C 58.761719 196.460938 51.761719 212.960938 50.980469 229.835938 L 39.183594 229.835938 Z M 303.128906 267.847656 C 287.5 271.957031 247.6875 274.699219 202.835938 275.835938 C 153.722656 277.082031 98.839844 276.363281 63.023438 273.382812 L 63.660156 259.972656 C 68.398438 261.042969 74.8125 262.007812 82.523438 262.867188 C 83.296875 263.460938 84.261719 263.835938 85.3125 263.867188 C 86.109375 263.894531 86.875 263.714844 87.542969 263.394531 C 101.042969 264.734375 117.773438 265.785156 135.960938 266.535156 C 136.664062 266.71875 137.375 266.746094 138.0625 266.617188 C 144.027344 266.855469 150.148438 267.050781 156.34375 267.222656 C 156.699219 267.273438 157.046875 267.28125 157.394531 267.246094 C 163.792969 267.414062 170.277344 267.550781 176.785156 267.644531 C 183.402344 267.738281 190.046875 267.804688 196.648438 267.847656 C 196.742188 267.855469 196.84375 267.847656 196.9375 267.847656 C 210.945312 267.925781 224.746094 267.855469 237.660156 267.644531 C 237.847656 267.660156 238.03125 267.679688 238.226562 267.671875 C 238.421875 267.671875 238.617188 267.644531 238.804688 267.621094 C 267.246094 267.128906 291.1875 265.90625 303.070312 263.835938 C 303.121094 265.046875 303.148438 266.390625 303.128906 267.847656 Z M 335.742188 229.84375 L 288.347656 229.84375 C 285.738281 228.613281 283.042969 227.585938 280.273438 226.667969 C 280.0625 226.582031 279.839844 226.507812 279.621094 226.449219 C 275.203125 225.023438 270.601562 223.867188 265.796875 222.671875 C 259.1875 221.023438 252.160156 219.277344 245.007812 216.621094 C 230.652344 211.28125 215.089844 204.5 199.429688 197.117188 C 183.75 189.722656 168.191406 181.847656 153.699219 174.242188 L 153.230469 173.980469 C 152.476562 173.613281 151.671875 173.460938 150.894531 173.496094 L 150.894531 126.273438 L 335.75 126.273438 L 335.75 229.84375 Z M 347.285156 116.582031 L 147.765625 116.582031 L 147.765625 98.09375 L 347.285156 98.09375 Z M 347.285156 116.582031 " fill-opacity="1" fill-rule="nonzero"/></g></svg>