<svg xmlns="http://www.w3.org/2000/svg" xmlns:xlink="http://www.w3.org/1999/xlink" width="500" zoomAndPan="magnify" viewBox="0 0 375 374.999991" height="500" preserveAspectRatio="xMidYMid meet" version="1.0"><defs><clipPath id="686314af68"><path d="M 0 39.84375 L 375 39.84375 L 375 335.34375 L 0 335.34375 Z M 0 39.84375 " clip-rule="nonzero"/></clipPath></defs><rect x="-37.5" width="450" fill="#ffffff" y="-37.499999" height="449.999989" fill-opacity="1"/><rect x="-37.5" width="450" fill="#ffffff" y="-37.499999" height="449.999989" fill-opacity="1"/><rect x="-37.5" width="450" fill="#ffffff" y="-37.499999" height="449.999989" fill-opacity="1"/><g clip-path="url(#686314af68)"><path fill="#0659a7" d="M 356.21875 89.78125 L 277.628906 89.78125 L 274.972656 70.992188 L 272.933594 58.324219 C 272.109375 53.21875 269.410156 48.988281 265.171875 45.453125 C 260.835938 41.835938 256.195312 39.941406 251.089844 39.941406 L 123.300781 39.941406 C 118.199219 39.941406 113.503906 41.777344 109.214844 45.453125 C 104.925781 49.132812 102.648438 53.445312 101.867188 58.324219 L 99.824219 70.992188 L 96.96875 89.78125 L 18.78125 89.78125 C 8.367188 89.78125 -0.00390625 98.15625 -0.00390625 108.164062 L -0.00390625 316.515625 C -0.00390625 326.929688 8.367188 335.304688 18.78125 335.304688 L 356.214844 335.304688 C 366.625 335.304688 374.996094 326.929688 374.996094 316.515625 L 374.996094 108.164062 C 374.996094 98.15625 366.625 89.78125 356.214844 89.78125 Z M 352.34375 312.636719 L 22.460938 312.636719 L 22.460938 112.25 L 96.96875 112.25 C 108.195312 112.25 117.890625 103.894531 119.421875 93.050781 L 122.074219 74.261719 L 124.117188 62.617188 L 250.679688 62.617188 L 252.519531 74.261719 L 255.375 93.050781 C 257.023438 103.875 266.808594 112.25 277.628906 112.25 L 352.339844 112.25 L 352.339844 312.636719 Z M 352.34375 312.636719 " fill-opacity="1" fill-rule="nonzero"/></g><path fill="#0659a7" d="M 316.003906 165.5625 C 325.804688 165.5625 333.96875 157.191406 333.96875 147.386719 C 333.96875 137.378906 326.007812 129.003906 316.003906 129.003906 C 306 129.003906 298.042969 137.378906 298.042969 147.386719 C 298.039062 157.191406 306.207031 165.5625 316.003906 165.5625 Z M 316.003906 165.5625 " fill-opacity="1" fill-rule="nonzero"/><path fill="#0659a7" d="M 187.195312 118.175781 C 164.128906 118.175781 144.125 126.546875 127.585938 143.09375 C 111.050781 159.636719 102.683594 179.65625 102.683594 202.742188 C 102.683594 225.820312 111.050781 245.839844 127.585938 262.382812 C 144.125 278.929688 164.128906 286.757812 187.195312 287.101562 C 232.925781 287.777344 272.242188 248.089844 271.703125 202.738281 C 271.429688 179.453125 263.332031 159.636719 246.800781 143.089844 C 230.265625 126.546875 210.464844 118.175781 187.191406 118.175781 Z M 230.878906 246.65625 C 218.835938 258.707031 204.34375 264.628906 187.195312 264.628906 C 170.253906 264.628906 155.761719 258.707031 143.714844 246.65625 C 131.667969 234.601562 125.75 219.894531 125.75 202.738281 C 125.75 185.785156 131.667969 171.078125 143.714844 159.023438 C 155.761719 146.972656 170.253906 140.847656 187.195312 140.847656 C 204.34375 140.847656 218.835938 146.972656 230.878906 159.023438 C 242.921875 171.078125 249.046875 185.785156 249.046875 202.738281 C 249.046875 219.898438 242.921875 234.601562 230.878906 246.65625 Z M 230.878906 246.65625 " fill-opacity="1" fill-rule="nonzero"/></svg>