<svg xmlns="http://www.w3.org/2000/svg" xmlns:xlink="http://www.w3.org/1999/xlink" width="500" zoomAndPan="magnify" viewBox="0 0 375 374.999991" height="500" preserveAspectRatio="xMidYMid meet" version="1.0"><path d="M 0 187.5 C 0 291.25 83.75 375 187.5 375 C 291.25 375 375 291.25 375 187.5 C 375 83.75 291.25 0 187.5 0 C 83.75 0 0 83.75 0 187.5 Z M 72.082031 192.082031 C 72.082031 191.667969 71.667969 191.667969 71.667969 191.25 C 70.832031 190 70.832031 188.75 70.832031 187.5 C 70.832031 186.25 71.25 185 71.667969 183.75 C 71.667969 183.332031 72.082031 183.332031 72.082031 182.917969 C 72.5 182.082031 72.917969 181.25 73.75 180.832031 C 73.75 180.832031 73.75 180.832031 74.167969 180.417969 L 142.5 122.082031 C 146.25 118.75 152.082031 119.167969 155.417969 122.917969 C 158.75 126.667969 158.332031 132.5 154.582031 135.832031 L 105 177.917969 L 295 177.917969 C 300 177.917969 304.167969 182.082031 304.167969 187.082031 C 304.167969 192.082031 300 196.25 295 196.25 L 105 196.25 L 154.167969 238.75 C 157.917969 242.082031 158.332031 247.917969 155 251.667969 C 153.332031 253.75 150.417969 255 147.917969 255 C 145.832031 255 143.75 254.167969 142.082031 252.917969 L 73.75 194.582031 C 73.75 194.582031 73.75 194.582031 73.332031 194.167969 C 72.917969 193.75 72.5 192.917969 72.082031 192.082031 Z M 72.082031 192.082031 " fill-opacity="1" fill-rule="nonzero"/></svg>